<svg width="120" viewBox="0 0 120 120" fill="none" xmlns="http://www.w3.org/2000/svg">
<path d="M120 104.444C120 113.035 117.016 120 113.335 120H6.66548C2.98423 120 0 113.035 0 104.444V15.556C0 6.96464 2.98423 0 6.66548 0H113.335C117.016 0 120 6.96464 120 15.556V104.444Z" fill="#092E20"/>
<path d="M53.5906 25H66.8528V86.3867C60.0494 87.6783 55.0544 88.195 49.6294 88.195C33.4394 88.195 25 80.8761 25 66.8378C25 53.3178 33.9567 44.5339 47.8211 44.5339C49.9739 44.5339 51.61 44.7067 53.5911 45.2222V25H53.5906ZM53.5906 55.9C52.0406 55.3839 50.7489 55.2117 49.1128 55.2117C42.3956 55.2117 38.52 59.3456 38.52 66.5783C38.52 73.6411 42.2233 77.5161 49.0267 77.5161C50.49 77.5161 51.6961 77.43 53.5906 77.1728V55.9Z" fill="white"/>
<path d="M87.9507 45.48V76.225C87.9507 86.8166 87.1757 91.8972 84.8507 96.29C82.6973 100.51 79.8551 103.178 73.9996 106.107L61.6846 100.251C67.5407 97.495 70.3824 95.0855 72.1907 91.3805C74.0857 87.5922 74.689 83.1989 74.689 71.6594V45.48H87.9507ZM74.689 25.0705H87.9507V38.6777H74.689V25.0705V25.0705Z" fill="white"/>
</svg>
