<svg width="107" viewBox="0 0 107 120" fill="none" xmlns="http://www.w3.org/2000/svg">
<path d="M106.225 83.8883V28.0455L57.8283 0.124098V21.5926L76.8148 32.5129C77.5594 32.8852 77.5594 34.0021 76.8148 34.3744L54.2295 47.4043C53.609 47.7766 52.7404 47.7766 52.1199 47.4043L29.5346 34.2503C28.79 33.878 28.79 32.7611 29.5346 32.3888L48.5211 21.4685V0L0.124023 27.9214V83.8883V83.6401V83.8883L18.7383 73.2161V51.2513C18.7383 50.5067 19.607 49.8862 20.3515 50.3826L42.9368 63.4126C43.5573 63.7849 44.0537 64.5295 44.0537 65.274V91.334C44.0537 92.0786 43.185 92.6991 42.4405 92.2027L23.4539 81.2823L4.83964 91.9545L53.2367 119.876L101.634 91.9545L83.0196 81.2823L64.033 92.2027C63.4125 92.575 62.4198 92.0786 62.4198 91.334V65.274C62.4198 64.5295 62.7921 63.7849 63.5366 63.4126L86.122 50.3826C86.7424 50.0103 87.7352 50.5067 87.7352 51.2513V73.2161L106.225 83.8883Z" fill="#CCCCCC"/>
<path d="M53.1123 120L101.509 92.0786L82.8951 81.4064L63.9086 92.3268C63.2881 92.6991 62.2953 92.2027 62.2953 91.4581V65.3981C62.2953 64.6536 62.6676 63.909 63.4122 63.5367L85.9975 50.5067C86.618 50.1344 87.6107 50.6308 87.6107 51.3754V73.3402L106.225 84.0124V28.0455L53.1123 58.697V120Z" fill="#A6A6A6"/>
<path d="M57.7042 0V21.4685L76.6907 32.3888C77.4353 32.7611 77.4353 33.878 76.6907 34.2503L54.1054 47.2802C53.4849 47.6525 52.6163 47.6525 51.9958 47.2802L29.5346 34.2503C28.79 33.878 28.79 32.7611 29.5346 32.3888L48.5211 21.4685V0L0.124023 27.9214L53.2367 58.5729L106.349 27.9214L57.7042 0Z" fill="white"/>
<path d="M42.1923 92.2027L23.2058 81.2823L4.59152 91.9545L52.9886 119.876V58.5729L0 28.0455V84.0124V83.7642V84.0124L18.6143 73.3402V51.3754C18.6143 50.6308 19.4829 50.0103 20.2275 50.5067L42.8128 63.5367C43.4333 63.909 43.9297 64.6536 43.9297 65.3981V91.4581C43.8056 92.0786 42.9369 92.575 42.1923 92.2027Z" fill="#CCCCCC"/>
</svg>
